<?xml version="1.0" encoding="UTF-8"?>
<!DOCTYPE svg PUBLIC "-//W3C//DTD SVG 1.1//EN" "http://www.w3.org/Graphics/SVG/1.1/DTD/svg11.dtd">
<!-- Creator: CorelDRAW 2021.5 -->
<svg xmlns="http://www.w3.org/2000/svg" xml:space="preserve" width="354px" height="213px" version="1.1" style="shape-rendering:geometricPrecision; text-rendering:geometricPrecision; image-rendering:optimizeQuality; fill-rule:evenodd; clip-rule:evenodd"
viewBox="0 0 354 212.4"
 xmlns:xlink="http://www.w3.org/1999/xlink"
 xmlns:xodm="http://www.corel.com/coreldraw/odm/2003">
 <defs>
  <style type="text/css">
   <![CDATA[
    .fil0 {fill:#0095b6}
   ]]>
  </style>
 </defs>
 <g id="Слой_x0020_1">
  <metadata id="CorelCorpID_0Corel-Layer"/>
  <path class="fil0" d="M-0.64 113.55c2.44,41.18 28.74,70.26 55.56,83.8 19.99,10.09 34.23,10.68 58.86,10.68 45.61,0 93.79,0.54 139.04,-0.01 21.84,-0.27 38.18,-6.15 53.32,-15.64 57.07,-35.78 63.54,-118.19 12.02,-161.92 -24.83,-21.08 -45.64,-24.68 -79.75,-24.68 -45.5,0 -93.94,-0.57 -139.04,0.02 -27.38,0.36 -56.47,12.9 -72.39,31.48 -5.88,6.86 -10.11,11.32 -14.84,20.05 -8.65,16 -14.08,34.31 -12.78,56.22zm174.39 26.25l0 -30.61 -30.61 0 0 -4.82 30.61 0 0 -30.61 4.82 0 0 30.61 30.61 0 0 4.82 -30.61 0 0 30.61 -4.82 0z"/>
 </g>
</svg>
